<svg xmlns="http://www.w3.org/2000/svg" viewBox="0 0 100.71 112.82"><defs><style>.cls-1{fill:#86c3d0;}.cls-2{fill:#fff;}</style></defs><g id="API"><path class="cls-1" d="M50.35,14.24a43,43,0,1,0,43.05,43A43,43,0,0,0,50.35,14.24Z"/></g><g id="HOSTING"><g id="WEVAsr.tif"><path class="cls-2" d="M49.75,36.28,55,45.06l2.74,4.55a.7.7,0,0,0,.24.27c.65.35,1.31.68,2,1a2.66,2.66,0,0,1,.38-.4,1.73,1.73,0,0,1,1.88-.27.58.58,0,0,0,.53,0,4,4,0,0,1,3.26.27c.25.13.49.29.73.43.79-1.21,2.52-1.54,3.56.32a6.93,6.93,0,0,1,.88-1,1.59,1.59,0,0,1,.91-.29,6.62,6.62,0,0,1,1.66.14,1.74,1.74,0,0,1,1.37,1.63c0,.2.09.3.32.3L88.92,52c.65,0,1.3,0,2,.06l-.28.12L76.81,57.31c-.25.09-.33.17-.25.46a27.74,27.74,0,0,1,.72,3c.4,2.42.29,4.78-1.25,6.85a7.23,7.23,0,0,1-4.24,2.88c-.27.07-.54.09-.86.14l4.3,6.74,0,.07-1.24-.47L50.05,67.66a.76.76,0,0,0-.61,0L24.65,77.28l-.44.14,7.16-11.21c-.68.18-1.28.32-1.87.49s-.95.3-1.41.47a1.84,1.84,0,0,1-2.41-1,9.37,9.37,0,0,0-2-2.93,1.85,1.85,0,0,1,.72-3.06,3.56,3.56,0,0,1,.39-.13l-1-.7a4.31,4.31,0,0,1-1.37-1.92.67.67,0,0,0-.41-.41L8.87,52.15A.56.56,0,0,1,8.6,52H9L22.63,52a.57.57,0,0,0,.56-.31,30.57,30.57,0,0,1,5.92-7.42,6.57,6.57,0,0,1,3.07-1.7,2.84,2.84,0,0,1,3.37,1.77,5.86,5.86,0,0,1,.36,1.72,10.58,10.58,0,0,1-.31,3.31.33.33,0,0,0,.06.27,2.33,2.33,0,0,1,.81,1.88c0,.1.05.2.08.37.46-.6.83-1.24,1.58-1.39a1.87,1.87,0,0,1,1.85.55l1.07-.55a.7.7,0,0,0,.22-.2l8.38-13.95a.38.38,0,0,0,0-.1Zm22,38.22c-.1-.17-.15-.27-.21-.36-.7-1.1-1.42-2.19-2.1-3.3a.57.57,0,0,0-.76-.3,7.8,7.8,0,0,1-2.88.32,2.17,2.17,0,0,1-1.87-1.59,1.86,1.86,0,0,1,1-2.09,1.59,1.59,0,0,0,.75-1.06,2.49,2.49,0,0,0,0-1.12c-.14-.4-.31-.85-.85-1a4.12,4.12,0,0,1-1-.49,5.57,5.57,0,0,1-2.07-2.84c-.1-.27-.19-.56-.3-.86-1.9,3-6.45,3-8.64.52-2.11,2.58-5.49,2.82-7.31,1.35a1,1,0,0,0-.07.15,1.89,1.89,0,0,1-1,1.28,5.67,5.67,0,0,1-2.23.71,3.17,3.17,0,0,1-2.79-.93,14,14,0,0,1-1.11-1.54c-.06.14-.15.35-.25.55a7.55,7.55,0,0,1-4.06,3.52,1.19,1.19,0,0,0-.53.44Q30.71,70,28.09,74.06l-.26.42.28-.08q10.68-4.14,21.36-8.27a.91.91,0,0,1,.61,0q9.68,3.72,19.33,7.48ZM29.84,48A7.86,7.86,0,0,0,27.73,51a5,5,0,0,0-.47,2.36,1.57,1.57,0,0,0,1.26,1.62,3.24,3.24,0,0,0,1.28-.08,4.21,4.21,0,0,0,2-1.46,9.5,9.5,0,0,0,2-4.46,8.64,8.64,0,0,0,.22-3.2c-.21-1.32-.94-1.71-2.12-1.07A9.41,9.41,0,0,0,30,46.07a29.36,29.36,0,0,0-5,6.27A7.46,7.46,0,0,0,24,55a3.05,3.05,0,0,0,1.88,3.51,4.89,4.89,0,0,0,2.83.25,6.81,6.81,0,0,0,4.5-3.28,21,21,0,0,0,.93-1.9l.05.11a3.82,3.82,0,0,1,0,4,7.11,7.11,0,0,1-2.51,1.94,31.38,31.38,0,0,1-5.16,1.93L25,62a9.79,9.79,0,0,1,2.36,3.41c1.77-.51,3.53-1,5.26-1.52a8.54,8.54,0,0,0,2.13-1.08,3.86,3.86,0,0,0,1.8-3.92c-.1-.64-.23-1.28-.39-1.91-.52-1.93-1.41-3.75-1.63-5.76l-.19,0-.19.05a9.58,9.58,0,0,1-.85,3,7.08,7.08,0,0,1-3.11,3.46,3.22,3.22,0,0,1-4.72-2.1,5.68,5.68,0,0,1,.64-4.37,22.35,22.35,0,0,1,3.52-4.64A6.36,6.36,0,0,1,31.8,45c.8-.3,1.22-.07,1.39.77a2.12,2.12,0,0,1,.05.44,14.1,14.1,0,0,1-.7,4.32A6.39,6.39,0,0,1,31.46,53a4.07,4.07,0,0,1-1,.84.86.86,0,0,1-1.36-.59,2.33,2.33,0,0,1,0-1.2A8,8,0,0,1,30,50.43a1.38,1.38,0,0,0,.14-1.36A8.89,8.89,0,0,1,29.84,48Zm26.22,1.53L49.77,39.12,42.69,50.87a2.9,2.9,0,0,1,1.71-.23,1.92,1.92,0,0,1,1.32,1.15c.93-1.11,1.94-2.07,3.51-2a4.34,4.34,0,0,1,3.7,1.7A4,4,0,0,1,56.06,49.56Zm16.25,2.3.46.86a10,10,0,0,1,1.09,2.69,3.44,3.44,0,0,1-.27,2.4,1.4,1.4,0,0,1-2.54.17,4.61,4.61,0,0,1-.59-1.12c-.37-1-.69-2.08-1-3.11a6,6,0,0,0-.94-1.89l-.36.67A4.47,4.47,0,0,1,69.33,55c.3,1.68.49,3.39.79,5.08a15.28,15.28,0,0,0,.63,2.48,1.5,1.5,0,0,0,2.91.09,8.08,8.08,0,0,0,.56-1.79c.13-.76.14-1.54.2-2.33A13.85,13.85,0,0,1,74.77,62a4.1,4.1,0,0,1-4.87,4c-1-.18-2.05-.45-3.09-.68A3.71,3.71,0,0,1,64.94,69c.28.06.43.11.58.13l1.37.1a11,11,0,0,0,4.32-.33,6,6,0,0,0,4.16-4.24,8.17,8.17,0,0,0,0-4.08c-.62-2.65-1.26-5.31-1.88-8-.21-.88-.21-.88-1.12-.81Zm-19,4.29c0,2.5,1,3.74,3.07,4.08A3.21,3.21,0,0,0,60,58.31a4.71,4.71,0,0,0,.33-3.11,4.53,4.53,0,0,0-3.19-3.62,2,2,0,0,0-2.66,1A7.63,7.63,0,0,0,53.32,56.15ZM61,52.62a4.75,4.75,0,0,1,1,2c.16.56.28,1.15.43,1.72.32,1.28.61,2.56,1,3.82A3.07,3.07,0,0,0,64.75,62a1.71,1.71,0,0,0,2.61-.57,4.21,4.21,0,0,0,.34-.75,7.87,7.87,0,0,0,.16-4.17A7.23,7.23,0,0,0,66.22,53a2.91,2.91,0,0,0-2.32-1.07.68.68,0,0,0-.66.45,2,2,0,0,0,1.32,2.36c.08-.18.16-.37.23-.56a.91.91,0,0,0-.11-1,1.8,1.8,0,0,1-.21-.58,1.41,1.41,0,0,1,1.34.38,3.94,3.94,0,0,1,1.33,2.67,2.4,2.4,0,0,1-.81,2.16,1.59,1.59,0,0,1-.78.38,2,2,0,0,1-2-.92A5.16,5.16,0,0,1,63,56c-.29-.92-.5-1.85-.78-2.77a9,9,0,0,0-.56-1.25Zm-8.65,3.22a5.61,5.61,0,0,0-.7-2.86,2.13,2.13,0,0,0-1.88-1.19,2.5,2.5,0,0,1-.54-.07,1.18,1.18,0,0,0-1,.21,4.28,4.28,0,0,0-.72.62,7.7,7.7,0,0,0-1.79,6.1,2.19,2.19,0,0,0,1.73,2,3.57,3.57,0,0,0,1.86-.17A5,5,0,0,0,52.38,55.84Zm-9,2.53-.6.28c-.35.14-.7.29-1,.4a1,1,0,0,1-1.08-.26,4.81,4.81,0,0,1-1.33-3.49.59.59,0,0,1,.94-.48l.9.5a1.1,1.1,0,0,0,1,0,3.18,3.18,0,0,0,1.67-2,4.86,4.86,0,0,0,.07-.8c-.39.07-.51.36-.69.59-.47.63-1.08.56-1.43-.15-.1-.2-.23-.38-.36-.59-.28.38-.5.72-.76,1a7.57,7.57,0,0,1-.81.89c-.46.41-.64.37-.84-.21s-.34-1.09-.52-1.68l-1,1.33A3.35,3.35,0,0,1,39,55.91c.2.83.31,1.68.49,2.52s.37,1.67.63,2.48a1.42,1.42,0,0,0,1.21,1,3.22,3.22,0,0,0,2-.45.36.36,0,0,0,.08-.28c0-.59-.07-1.19-.08-1.78A8.45,8.45,0,0,1,43.43,58.37Zm32.75-2.32,9-3.35H75.46ZM14.39,52.7,22,55.52l.62-2.82Zm54.38,10-.45.53.62,0Z"/><path class="cls-2" d="M68.77,62.69l.17.5-.62,0Z"/><path class="cls-2" d="M55.5,51.92a1.92,1.92,0,0,0-.25,1.34,1.63,1.63,0,0,0,.9,1.18,1.14,1.14,0,0,0,1.28-.19.39.39,0,0,0,0-.38,3,3,0,0,0-.46-.49l-.57-.5c-.17-.17-.32-.4-.17-.61a.83.83,0,0,1,.56-.36,1.86,1.86,0,0,1,.91.23,4.51,4.51,0,0,1,2,2.06,1.71,1.71,0,0,1-.64,2.39,2.91,2.91,0,0,1-3.4,0,3,3,0,0,1-1-3.41A2.5,2.5,0,0,1,55.5,51.92Z"/><path class="cls-2" d="M48.33,52.25a8,8,0,0,0-.39,1.3,2.44,2.44,0,0,0,.09,1,.92.92,0,0,0,.9.67A1.19,1.19,0,0,0,50,54.71c.07-.1,0-.38-.09-.51a9.22,9.22,0,0,0-.69-.71c-.33-.36-.38-.63-.2-.92a.88.88,0,0,1,1-.36,1.28,1.28,0,0,1,.43.19,3.47,3.47,0,0,1,1.58,2.68,1.73,1.73,0,0,1-.23.94,3.42,3.42,0,0,1-2.48,1.78,1.86,1.86,0,0,1-1.89-.86A3.72,3.72,0,0,1,48.33,52.25Z"/></g></g></svg>